<svg xmlns="http://www.w3.org/2000/svg" xml:space="preserve" xmlns:xlink="http://www.w3.org/1999/xlink" style="max-width: 100%;height: auto;" width="990" height="990" viewBox="0 0 990 990">
<rect width="990" height="990" fill="#ffffff" x="0" y="0" />
<g fill="#000000">
<g transform="translate(220,44) scale(3.7766666666667)"><rect width="6" height="6"/></g>
<g transform="translate(286,44) scale(3.7766666666667)"><rect width="6" height="6"/></g>
<g transform="translate(352,44) scale(3.7766666666667)"><rect width="6" height="6"/></g>
<g transform="translate(374,44) scale(3.7766666666667)"><rect width="6" height="6"/></g>
<g transform="translate(396,44) scale(3.7766666666667)"><rect width="6" height="6"/></g>
<g transform="translate(440,44) scale(3.7766666666667)"><rect width="6" height="6"/></g>
<g transform="translate(462,44) scale(3.7766666666667)"><rect width="6" height="6"/></g>
<g transform="translate(528,44) scale(3.7766666666667)"><rect width="6" height="6"/></g>
<g transform="translate(594,44) scale(3.7766666666667)"><rect width="6" height="6"/></g>
<g transform="translate(660,44) scale(3.7766666666667)"><rect width="6" height="6"/></g>
<g transform="translate(704,44) scale(3.7766666666667)"><rect width="6" height="6"/></g>
<g transform="translate(726,44) scale(3.7766666666667)"><rect width="6" height="6"/></g>
<g transform="translate(748,44) scale(3.7766666666667)"><rect width="6" height="6"/></g>
<g transform="translate(220,66) scale(3.7766666666667)"><rect width="6" height="6"/></g>
<g transform="translate(242,66) scale(3.7766666666667)"><rect width="6" height="6"/></g>
<g transform="translate(286,66) scale(3.7766666666667)"><rect width="6" height="6"/></g>
<g transform="translate(330,66) scale(3.7766666666667)"><rect width="6" height="6"/></g>
<g transform="translate(374,66) scale(3.7766666666667)"><rect width="6" height="6"/></g>
<g transform="translate(396,66) scale(3.7766666666667)"><rect width="6" height="6"/></g>
<g transform="translate(418,66) scale(3.7766666666667)"><rect width="6" height="6"/></g>
<g transform="translate(550,66) scale(3.7766666666667)"><rect width="6" height="6"/></g>
<g transform="translate(572,66) scale(3.7766666666667)"><rect width="6" height="6"/></g>
<g transform="translate(594,66) scale(3.7766666666667)"><rect width="6" height="6"/></g>
<g transform="translate(616,66) scale(3.7766666666667)"><rect width="6" height="6"/></g>
<g transform="translate(638,66) scale(3.7766666666667)"><rect width="6" height="6"/></g>
<g transform="translate(704,66) scale(3.7766666666667)"><rect width="6" height="6"/></g>
<g transform="translate(748,66) scale(3.7766666666667)"><rect width="6" height="6"/></g>
<g transform="translate(220,88) scale(3.7766666666667)"><rect width="6" height="6"/></g>
<g transform="translate(242,88) scale(3.7766666666667)"><rect width="6" height="6"/></g>
<g transform="translate(286,88) scale(3.7766666666667)"><rect width="6" height="6"/></g>
<g transform="translate(308,88) scale(3.7766666666667)"><rect width="6" height="6"/></g>
<g transform="translate(352,88) scale(3.7766666666667)"><rect width="6" height="6"/></g>
<g transform="translate(462,88) scale(3.7766666666667)"><rect width="6" height="6"/></g>
<g transform="translate(506,88) scale(3.7766666666667)"><rect width="6" height="6"/></g>
<g transform="translate(528,88) scale(3.7766666666667)"><rect width="6" height="6"/></g>
<g transform="translate(550,88) scale(3.7766666666667)"><rect width="6" height="6"/></g>
<g transform="translate(594,88) scale(3.7766666666667)"><rect width="6" height="6"/></g>
<g transform="translate(638,88) scale(3.7766666666667)"><rect width="6" height="6"/></g>
<g transform="translate(748,88) scale(3.7766666666667)"><rect width="6" height="6"/></g>
<g transform="translate(242,110) scale(3.7766666666667)"><rect width="6" height="6"/></g>
<g transform="translate(308,110) scale(3.7766666666667)"><rect width="6" height="6"/></g>
<g transform="translate(330,110) scale(3.7766666666667)"><rect width="6" height="6"/></g>
<g transform="translate(374,110) scale(3.7766666666667)"><rect width="6" height="6"/></g>
<g transform="translate(396,110) scale(3.7766666666667)"><rect width="6" height="6"/></g>
<g transform="translate(440,110) scale(3.7766666666667)"><rect width="6" height="6"/></g>
<g transform="translate(484,110) scale(3.7766666666667)"><rect width="6" height="6"/></g>
<g transform="translate(616,110) scale(3.7766666666667)"><rect width="6" height="6"/></g>
<g transform="translate(638,110) scale(3.7766666666667)"><rect width="6" height="6"/></g>
<g transform="translate(660,110) scale(3.7766666666667)"><rect width="6" height="6"/></g>
<g transform="translate(704,110) scale(3.7766666666667)"><rect width="6" height="6"/></g>
<g transform="translate(726,110) scale(3.7766666666667)"><rect width="6" height="6"/></g>
<g transform="translate(242,132) scale(3.7766666666667)"><rect width="6" height="6"/></g>
<g transform="translate(286,132) scale(3.7766666666667)"><rect width="6" height="6"/></g>
<g transform="translate(308,132) scale(3.7766666666667)"><rect width="6" height="6"/></g>
<g transform="translate(330,132) scale(3.7766666666667)"><rect width="6" height="6"/></g>
<g transform="translate(352,132) scale(3.7766666666667)"><rect width="6" height="6"/></g>
<g transform="translate(462,132) scale(3.7766666666667)"><rect width="6" height="6"/></g>
<g transform="translate(484,132) scale(3.7766666666667)"><rect width="6" height="6"/></g>
<g transform="translate(506,132) scale(3.7766666666667)"><rect width="6" height="6"/></g>
<g transform="translate(572,132) scale(3.7766666666667)"><rect width="6" height="6"/></g>
<g transform="translate(594,132) scale(3.7766666666667)"><rect width="6" height="6"/></g>
<g transform="translate(660,132) scale(3.7766666666667)"><rect width="6" height="6"/></g>
<g transform="translate(726,132) scale(3.7766666666667)"><rect width="6" height="6"/></g>
<g transform="translate(748,132) scale(3.7766666666667)"><rect width="6" height="6"/></g>
<g transform="translate(220,154) scale(3.7766666666667)"><rect width="6" height="6"/></g>
<g transform="translate(242,154) scale(3.7766666666667)"><rect width="6" height="6"/></g>
<g transform="translate(286,154) scale(3.7766666666667)"><rect width="6" height="6"/></g>
<g transform="translate(352,154) scale(3.7766666666667)"><rect width="6" height="6"/></g>
<g transform="translate(396,154) scale(3.7766666666667)"><rect width="6" height="6"/></g>
<g transform="translate(440,154) scale(3.7766666666667)"><rect width="6" height="6"/></g>
<g transform="translate(484,154) scale(3.7766666666667)"><rect width="6" height="6"/></g>
<g transform="translate(506,154) scale(3.7766666666667)"><rect width="6" height="6"/></g>
<g transform="translate(594,154) scale(3.7766666666667)"><rect width="6" height="6"/></g>
<g transform="translate(616,154) scale(3.7766666666667)"><rect width="6" height="6"/></g>
<g transform="translate(638,154) scale(3.7766666666667)"><rect width="6" height="6"/></g>
<g transform="translate(682,154) scale(3.7766666666667)"><rect width="6" height="6"/></g>
<g transform="translate(220,176) scale(3.7766666666667)"><rect width="6" height="6"/></g>
<g transform="translate(264,176) scale(3.7766666666667)"><rect width="6" height="6"/></g>
<g transform="translate(308,176) scale(3.7766666666667)"><rect width="6" height="6"/></g>
<g transform="translate(352,176) scale(3.7766666666667)"><rect width="6" height="6"/></g>
<g transform="translate(396,176) scale(3.7766666666667)"><rect width="6" height="6"/></g>
<g transform="translate(440,176) scale(3.7766666666667)"><rect width="6" height="6"/></g>
<g transform="translate(484,176) scale(3.7766666666667)"><rect width="6" height="6"/></g>
<g transform="translate(528,176) scale(3.7766666666667)"><rect width="6" height="6"/></g>
<g transform="translate(572,176) scale(3.7766666666667)"><rect width="6" height="6"/></g>
<g transform="translate(616,176) scale(3.7766666666667)"><rect width="6" height="6"/></g>
<g transform="translate(660,176) scale(3.7766666666667)"><rect width="6" height="6"/></g>
<g transform="translate(704,176) scale(3.7766666666667)"><rect width="6" height="6"/></g>
<g transform="translate(748,176) scale(3.7766666666667)"><rect width="6" height="6"/></g>
<g transform="translate(220,198) scale(3.7766666666667)"><rect width="6" height="6"/></g>
<g transform="translate(264,198) scale(3.7766666666667)"><rect width="6" height="6"/></g>
<g transform="translate(352,198) scale(3.7766666666667)"><rect width="6" height="6"/></g>
<g transform="translate(374,198) scale(3.7766666666667)"><rect width="6" height="6"/></g>
<g transform="translate(440,198) scale(3.7766666666667)"><rect width="6" height="6"/></g>
<g transform="translate(462,198) scale(3.7766666666667)"><rect width="6" height="6"/></g>
<g transform="translate(528,198) scale(3.7766666666667)"><rect width="6" height="6"/></g>
<g transform="translate(550,198) scale(3.7766666666667)"><rect width="6" height="6"/></g>
<g transform="translate(638,198) scale(3.7766666666667)"><rect width="6" height="6"/></g>
<g transform="translate(660,198) scale(3.7766666666667)"><rect width="6" height="6"/></g>
<g transform="translate(726,198) scale(3.7766666666667)"><rect width="6" height="6"/></g>
<g transform="translate(748,198) scale(3.7766666666667)"><rect width="6" height="6"/></g>
<g transform="translate(88,220) scale(3.7766666666667)"><rect width="6" height="6"/></g>
<g transform="translate(110,220) scale(3.7766666666667)"><rect width="6" height="6"/></g>
<g transform="translate(132,220) scale(3.7766666666667)"><rect width="6" height="6"/></g>
<g transform="translate(176,220) scale(3.7766666666667)"><rect width="6" height="6"/></g>
<g transform="translate(220,220) scale(3.7766666666667)"><rect width="6" height="6"/></g>
<g transform="translate(242,220) scale(3.7766666666667)"><rect width="6" height="6"/></g>
<g transform="translate(264,220) scale(3.7766666666667)"><rect width="6" height="6"/></g>
<g transform="translate(308,220) scale(3.7766666666667)"><rect width="6" height="6"/></g>
<g transform="translate(330,220) scale(3.7766666666667)"><rect width="6" height="6"/></g>
<g transform="translate(352,220) scale(3.7766666666667)"><rect width="6" height="6"/></g>
<g transform="translate(374,220) scale(3.7766666666667)"><rect width="6" height="6"/></g>
<g transform="translate(484,220) scale(3.7766666666667)"><rect width="6" height="6"/></g>
<g transform="translate(506,220) scale(3.7766666666667)"><rect width="6" height="6"/></g>
<g transform="translate(638,220) scale(3.7766666666667)"><rect width="6" height="6"/></g>
<g transform="translate(682,220) scale(3.7766666666667)"><rect width="6" height="6"/></g>
<g transform="translate(726,220) scale(3.7766666666667)"><rect width="6" height="6"/></g>
<g transform="translate(748,220) scale(3.7766666666667)"><rect width="6" height="6"/></g>
<g transform="translate(770,220) scale(3.7766666666667)"><rect width="6" height="6"/></g>
<g transform="translate(792,220) scale(3.7766666666667)"><rect width="6" height="6"/></g>
<g transform="translate(814,220) scale(3.7766666666667)"><rect width="6" height="6"/></g>
<g transform="translate(880,220) scale(3.7766666666667)"><rect width="6" height="6"/></g>
<g transform="translate(902,220) scale(3.7766666666667)"><rect width="6" height="6"/></g>
<g transform="translate(924,220) scale(3.7766666666667)"><rect width="6" height="6"/></g>
<g transform="translate(44,242) scale(3.7766666666667)"><rect width="6" height="6"/></g>
<g transform="translate(88,242) scale(3.7766666666667)"><rect width="6" height="6"/></g>
<g transform="translate(198,242) scale(3.7766666666667)"><rect width="6" height="6"/></g>
<g transform="translate(242,242) scale(3.7766666666667)"><rect width="6" height="6"/></g>
<g transform="translate(264,242) scale(3.7766666666667)"><rect width="6" height="6"/></g>
<g transform="translate(308,242) scale(3.7766666666667)"><rect width="6" height="6"/></g>
<g transform="translate(352,242) scale(3.7766666666667)"><rect width="6" height="6"/></g>
<g transform="translate(396,242) scale(3.7766666666667)"><rect width="6" height="6"/></g>
<g transform="translate(440,242) scale(3.7766666666667)"><rect width="6" height="6"/></g>
<g transform="translate(506,242) scale(3.7766666666667)"><rect width="6" height="6"/></g>
<g transform="translate(528,242) scale(3.7766666666667)"><rect width="6" height="6"/></g>
<g transform="translate(594,242) scale(3.7766666666667)"><rect width="6" height="6"/></g>
<g transform="translate(616,242) scale(3.7766666666667)"><rect width="6" height="6"/></g>
<g transform="translate(660,242) scale(3.7766666666667)"><rect width="6" height="6"/></g>
<g transform="translate(682,242) scale(3.7766666666667)"><rect width="6" height="6"/></g>
<g transform="translate(704,242) scale(3.7766666666667)"><rect width="6" height="6"/></g>
<g transform="translate(726,242) scale(3.7766666666667)"><rect width="6" height="6"/></g>
<g transform="translate(748,242) scale(3.7766666666667)"><rect width="6" height="6"/></g>
<g transform="translate(792,242) scale(3.7766666666667)"><rect width="6" height="6"/></g>
<g transform="translate(814,242) scale(3.7766666666667)"><rect width="6" height="6"/></g>
<g transform="translate(836,242) scale(3.7766666666667)"><rect width="6" height="6"/></g>
<g transform="translate(880,242) scale(3.7766666666667)"><rect width="6" height="6"/></g>
<g transform="translate(902,242) scale(3.7766666666667)"><rect width="6" height="6"/></g>
<g transform="translate(924,242) scale(3.7766666666667)"><rect width="6" height="6"/></g>
<g transform="translate(176,264) scale(3.7766666666667)"><rect width="6" height="6"/></g>
<g transform="translate(220,264) scale(3.7766666666667)"><rect width="6" height="6"/></g>
<g transform="translate(242,264) scale(3.7766666666667)"><rect width="6" height="6"/></g>
<g transform="translate(264,264) scale(3.7766666666667)"><rect width="6" height="6"/></g>
<g transform="translate(308,264) scale(3.7766666666667)"><rect width="6" height="6"/></g>
<g transform="translate(330,264) scale(3.7766666666667)"><rect width="6" height="6"/></g>
<g transform="translate(352,264) scale(3.7766666666667)"><rect width="6" height="6"/></g>
<g transform="translate(374,264) scale(3.7766666666667)"><rect width="6" height="6"/></g>
<g transform="translate(396,264) scale(3.7766666666667)"><rect width="6" height="6"/></g>
<g transform="translate(484,264) scale(3.7766666666667)"><rect width="6" height="6"/></g>
<g transform="translate(638,264) scale(3.7766666666667)"><rect width="6" height="6"/></g>
<g transform="translate(660,264) scale(3.7766666666667)"><rect width="6" height="6"/></g>
<g transform="translate(704,264) scale(3.7766666666667)"><rect width="6" height="6"/></g>
<g transform="translate(792,264) scale(3.7766666666667)"><rect width="6" height="6"/></g>
<g transform="translate(814,264) scale(3.7766666666667)"><rect width="6" height="6"/></g>
<g transform="translate(44,286) scale(3.7766666666667)"><rect width="6" height="6"/></g>
<g transform="translate(88,286) scale(3.7766666666667)"><rect width="6" height="6"/></g>
<g transform="translate(198,286) scale(3.7766666666667)"><rect width="6" height="6"/></g>
<g transform="translate(220,286) scale(3.7766666666667)"><rect width="6" height="6"/></g>
<g transform="translate(330,286) scale(3.7766666666667)"><rect width="6" height="6"/></g>
<g transform="translate(374,286) scale(3.7766666666667)"><rect width="6" height="6"/></g>
<g transform="translate(396,286) scale(3.7766666666667)"><rect width="6" height="6"/></g>
<g transform="translate(440,286) scale(3.7766666666667)"><rect width="6" height="6"/></g>
<g transform="translate(462,286) scale(3.7766666666667)"><rect width="6" height="6"/></g>
<g transform="translate(484,286) scale(3.7766666666667)"><rect width="6" height="6"/></g>
<g transform="translate(594,286) scale(3.7766666666667)"><rect width="6" height="6"/></g>
<g transform="translate(638,286) scale(3.7766666666667)"><rect width="6" height="6"/></g>
<g transform="translate(660,286) scale(3.7766666666667)"><rect width="6" height="6"/></g>
<g transform="translate(748,286) scale(3.7766666666667)"><rect width="6" height="6"/></g>
<g transform="translate(792,286) scale(3.7766666666667)"><rect width="6" height="6"/></g>
<g transform="translate(814,286) scale(3.7766666666667)"><rect width="6" height="6"/></g>
<g transform="translate(858,286) scale(3.7766666666667)"><rect width="6" height="6"/></g>
<g transform="translate(924,286) scale(3.7766666666667)"><rect width="6" height="6"/></g>
<g transform="translate(154,308) scale(3.7766666666667)"><rect width="6" height="6"/></g>
<g transform="translate(176,308) scale(3.7766666666667)"><rect width="6" height="6"/></g>
<g transform="translate(198,308) scale(3.7766666666667)"><rect width="6" height="6"/></g>
<g transform="translate(220,308) scale(3.7766666666667)"><rect width="6" height="6"/></g>
<g transform="translate(242,308) scale(3.7766666666667)"><rect width="6" height="6"/></g>
<g transform="translate(264,308) scale(3.7766666666667)"><rect width="6" height="6"/></g>
<g transform="translate(286,308) scale(3.7766666666667)"><rect width="6" height="6"/></g>
<g transform="translate(308,308) scale(3.7766666666667)"><rect width="6" height="6"/></g>
<g transform="translate(396,308) scale(3.7766666666667)"><rect width="6" height="6"/></g>
<g transform="translate(418,308) scale(3.7766666666667)"><rect width="6" height="6"/></g>
<g transform="translate(462,308) scale(3.7766666666667)"><rect width="6" height="6"/></g>
<g transform="translate(484,308) scale(3.7766666666667)"><rect width="6" height="6"/></g>
<g transform="translate(528,308) scale(3.7766666666667)"><rect width="6" height="6"/></g>
<g transform="translate(550,308) scale(3.7766666666667)"><rect width="6" height="6"/></g>
<g transform="translate(572,308) scale(3.7766666666667)"><rect width="6" height="6"/></g>
<g transform="translate(594,308) scale(3.7766666666667)"><rect width="6" height="6"/></g>
<g transform="translate(638,308) scale(3.7766666666667)"><rect width="6" height="6"/></g>
<g transform="translate(660,308) scale(3.7766666666667)"><rect width="6" height="6"/></g>
<g transform="translate(682,308) scale(3.7766666666667)"><rect width="6" height="6"/></g>
<g transform="translate(770,308) scale(3.7766666666667)"><rect width="6" height="6"/></g>
<g transform="translate(858,308) scale(3.7766666666667)"><rect width="6" height="6"/></g>
<g transform="translate(880,308) scale(3.7766666666667)"><rect width="6" height="6"/></g>
<g transform="translate(924,308) scale(3.7766666666667)"><rect width="6" height="6"/></g>
<g transform="translate(88,330) scale(3.7766666666667)"><rect width="6" height="6"/></g>
<g transform="translate(110,330) scale(3.7766666666667)"><rect width="6" height="6"/></g>
<g transform="translate(132,330) scale(3.7766666666667)"><rect width="6" height="6"/></g>
<g transform="translate(154,330) scale(3.7766666666667)"><rect width="6" height="6"/></g>
<g transform="translate(242,330) scale(3.7766666666667)"><rect width="6" height="6"/></g>
<g transform="translate(264,330) scale(3.7766666666667)"><rect width="6" height="6"/></g>
<g transform="translate(286,330) scale(3.7766666666667)"><rect width="6" height="6"/></g>
<g transform="translate(330,330) scale(3.7766666666667)"><rect width="6" height="6"/></g>
<g transform="translate(440,330) scale(3.7766666666667)"><rect width="6" height="6"/></g>
<g transform="translate(462,330) scale(3.7766666666667)"><rect width="6" height="6"/></g>
<g transform="translate(506,330) scale(3.7766666666667)"><rect width="6" height="6"/></g>
<g transform="translate(528,330) scale(3.7766666666667)"><rect width="6" height="6"/></g>
<g transform="translate(638,330) scale(3.7766666666667)"><rect width="6" height="6"/></g>
<g transform="translate(704,330) scale(3.7766666666667)"><rect width="6" height="6"/></g>
<g transform="translate(748,330) scale(3.7766666666667)"><rect width="6" height="6"/></g>
<g transform="translate(770,330) scale(3.7766666666667)"><rect width="6" height="6"/></g>
<g transform="translate(814,330) scale(3.7766666666667)"><rect width="6" height="6"/></g>
<g transform="translate(836,330) scale(3.7766666666667)"><rect width="6" height="6"/></g>
<g transform="translate(858,330) scale(3.7766666666667)"><rect width="6" height="6"/></g>
<g transform="translate(880,330) scale(3.7766666666667)"><rect width="6" height="6"/></g>
<g transform="translate(902,330) scale(3.7766666666667)"><rect width="6" height="6"/></g>
<g transform="translate(924,330) scale(3.7766666666667)"><rect width="6" height="6"/></g>
<g transform="translate(44,352) scale(3.7766666666667)"><rect width="6" height="6"/></g>
<g transform="translate(88,352) scale(3.7766666666667)"><rect width="6" height="6"/></g>
<g transform="translate(110,352) scale(3.7766666666667)"><rect width="6" height="6"/></g>
<g transform="translate(154,352) scale(3.7766666666667)"><rect width="6" height="6"/></g>
<g transform="translate(176,352) scale(3.7766666666667)"><rect width="6" height="6"/></g>
<g transform="translate(198,352) scale(3.7766666666667)"><rect width="6" height="6"/></g>
<g transform="translate(220,352) scale(3.7766666666667)"><rect width="6" height="6"/></g>
<g transform="translate(242,352) scale(3.7766666666667)"><rect width="6" height="6"/></g>
<g transform="translate(264,352) scale(3.7766666666667)"><rect width="6" height="6"/></g>
<g transform="translate(286,352) scale(3.7766666666667)"><rect width="6" height="6"/></g>
<g transform="translate(308,352) scale(3.7766666666667)"><rect width="6" height="6"/></g>
<g transform="translate(330,352) scale(3.7766666666667)"><rect width="6" height="6"/></g>
<g transform="translate(374,352) scale(3.7766666666667)"><rect width="6" height="6"/></g>
<g transform="translate(396,352) scale(3.7766666666667)"><rect width="6" height="6"/></g>
<g transform="translate(506,352) scale(3.7766666666667)"><rect width="6" height="6"/></g>
<g transform="translate(572,352) scale(3.7766666666667)"><rect width="6" height="6"/></g>
<g transform="translate(616,352) scale(3.7766666666667)"><rect width="6" height="6"/></g>
<g transform="translate(638,352) scale(3.7766666666667)"><rect width="6" height="6"/></g>
<g transform="translate(660,352) scale(3.7766666666667)"><rect width="6" height="6"/></g>
<g transform="translate(704,352) scale(3.7766666666667)"><rect width="6" height="6"/></g>
<g transform="translate(726,352) scale(3.7766666666667)"><rect width="6" height="6"/></g>
<g transform="translate(770,352) scale(3.7766666666667)"><rect width="6" height="6"/></g>
<g transform="translate(792,352) scale(3.7766666666667)"><rect width="6" height="6"/></g>
<g transform="translate(836,352) scale(3.7766666666667)"><rect width="6" height="6"/></g>
<g transform="translate(880,352) scale(3.7766666666667)"><rect width="6" height="6"/></g>
<g transform="translate(44,374) scale(3.7766666666667)"><rect width="6" height="6"/></g>
<g transform="translate(66,374) scale(3.7766666666667)"><rect width="6" height="6"/></g>
<g transform="translate(110,374) scale(3.7766666666667)"><rect width="6" height="6"/></g>
<g transform="translate(132,374) scale(3.7766666666667)"><rect width="6" height="6"/></g>
<g transform="translate(154,374) scale(3.7766666666667)"><rect width="6" height="6"/></g>
<g transform="translate(286,374) scale(3.7766666666667)"><rect width="6" height="6"/></g>
<g transform="translate(308,374) scale(3.7766666666667)"><rect width="6" height="6"/></g>
<g transform="translate(330,374) scale(3.7766666666667)"><rect width="6" height="6"/></g>
<g transform="translate(352,374) scale(3.7766666666667)"><rect width="6" height="6"/></g>
<g transform="translate(374,374) scale(3.7766666666667)"><rect width="6" height="6"/></g>
<g transform="translate(440,374) scale(3.7766666666667)"><rect width="6" height="6"/></g>
<g transform="translate(462,374) scale(3.7766666666667)"><rect width="6" height="6"/></g>
<g transform="translate(506,374) scale(3.7766666666667)"><rect width="6" height="6"/></g>
<g transform="translate(528,374) scale(3.7766666666667)"><rect width="6" height="6"/></g>
<g transform="translate(572,374) scale(3.7766666666667)"><rect width="6" height="6"/></g>
<g transform="translate(616,374) scale(3.7766666666667)"><rect width="6" height="6"/></g>
<g transform="translate(638,374) scale(3.7766666666667)"><rect width="6" height="6"/></g>
<g transform="translate(726,374) scale(3.7766666666667)"><rect width="6" height="6"/></g>
<g transform="translate(748,374) scale(3.7766666666667)"><rect width="6" height="6"/></g>
<g transform="translate(770,374) scale(3.7766666666667)"><rect width="6" height="6"/></g>
<g transform="translate(792,374) scale(3.7766666666667)"><rect width="6" height="6"/></g>
<g transform="translate(814,374) scale(3.7766666666667)"><rect width="6" height="6"/></g>
<g transform="translate(836,374) scale(3.7766666666667)"><rect width="6" height="6"/></g>
<g transform="translate(858,374) scale(3.7766666666667)"><rect width="6" height="6"/></g>
<g transform="translate(902,374) scale(3.7766666666667)"><rect width="6" height="6"/></g>
<g transform="translate(110,396) scale(3.7766666666667)"><rect width="6" height="6"/></g>
<g transform="translate(132,396) scale(3.7766666666667)"><rect width="6" height="6"/></g>
<g transform="translate(154,396) scale(3.7766666666667)"><rect width="6" height="6"/></g>
<g transform="translate(176,396) scale(3.7766666666667)"><rect width="6" height="6"/></g>
<g transform="translate(198,396) scale(3.7766666666667)"><rect width="6" height="6"/></g>
<g transform="translate(220,396) scale(3.7766666666667)"><rect width="6" height="6"/></g>
<g transform="translate(242,396) scale(3.7766666666667)"><rect width="6" height="6"/></g>
<g transform="translate(264,396) scale(3.7766666666667)"><rect width="6" height="6"/></g>
<g transform="translate(308,396) scale(3.7766666666667)"><rect width="6" height="6"/></g>
<g transform="translate(330,396) scale(3.7766666666667)"><rect width="6" height="6"/></g>
<g transform="translate(352,396) scale(3.7766666666667)"><rect width="6" height="6"/></g>
<g transform="translate(374,396) scale(3.7766666666667)"><rect width="6" height="6"/></g>
<g transform="translate(396,396) scale(3.7766666666667)"><rect width="6" height="6"/></g>
<g transform="translate(528,396) scale(3.7766666666667)"><rect width="6" height="6"/></g>
<g transform="translate(638,396) scale(3.7766666666667)"><rect width="6" height="6"/></g>
<g transform="translate(660,396) scale(3.7766666666667)"><rect width="6" height="6"/></g>
<g transform="translate(682,396) scale(3.7766666666667)"><rect width="6" height="6"/></g>
<g transform="translate(726,396) scale(3.7766666666667)"><rect width="6" height="6"/></g>
<g transform="translate(770,396) scale(3.7766666666667)"><rect width="6" height="6"/></g>
<g transform="translate(814,396) scale(3.7766666666667)"><rect width="6" height="6"/></g>
<g transform="translate(880,396) scale(3.7766666666667)"><rect width="6" height="6"/></g>
<g transform="translate(66,418) scale(3.7766666666667)"><rect width="6" height="6"/></g>
<g transform="translate(88,418) scale(3.7766666666667)"><rect width="6" height="6"/></g>
<g transform="translate(110,418) scale(3.7766666666667)"><rect width="6" height="6"/></g>
<g transform="translate(132,418) scale(3.7766666666667)"><rect width="6" height="6"/></g>
<g transform="translate(308,418) scale(3.7766666666667)"><rect width="6" height="6"/></g>
<g transform="translate(396,418) scale(3.7766666666667)"><rect width="6" height="6"/></g>
<g transform="translate(418,418) scale(3.7766666666667)"><rect width="6" height="6"/></g>
<g transform="translate(440,418) scale(3.7766666666667)"><rect width="6" height="6"/></g>
<g transform="translate(484,418) scale(3.7766666666667)"><rect width="6" height="6"/></g>
<g transform="translate(506,418) scale(3.7766666666667)"><rect width="6" height="6"/></g>
<g transform="translate(550,418) scale(3.7766666666667)"><rect width="6" height="6"/></g>
<g transform="translate(572,418) scale(3.7766666666667)"><rect width="6" height="6"/></g>
<g transform="translate(594,418) scale(3.7766666666667)"><rect width="6" height="6"/></g>
<g transform="translate(660,418) scale(3.7766666666667)"><rect width="6" height="6"/></g>
<g transform="translate(682,418) scale(3.7766666666667)"><rect width="6" height="6"/></g>
<g transform="translate(726,418) scale(3.7766666666667)"><rect width="6" height="6"/></g>
<g transform="translate(748,418) scale(3.7766666666667)"><rect width="6" height="6"/></g>
<g transform="translate(770,418) scale(3.7766666666667)"><rect width="6" height="6"/></g>
<g transform="translate(792,418) scale(3.7766666666667)"><rect width="6" height="6"/></g>
<g transform="translate(836,418) scale(3.7766666666667)"><rect width="6" height="6"/></g>
<g transform="translate(858,418) scale(3.7766666666667)"><rect width="6" height="6"/></g>
<g transform="translate(902,418) scale(3.7766666666667)"><rect width="6" height="6"/></g>
<g transform="translate(924,418) scale(3.7766666666667)"><rect width="6" height="6"/></g>
<g transform="translate(44,440) scale(3.7766666666667)"><rect width="6" height="6"/></g>
<g transform="translate(154,440) scale(3.7766666666667)"><rect width="6" height="6"/></g>
<g transform="translate(176,440) scale(3.7766666666667)"><rect width="6" height="6"/></g>
<g transform="translate(220,440) scale(3.7766666666667)"><rect width="6" height="6"/></g>
<g transform="translate(264,440) scale(3.7766666666667)"><rect width="6" height="6"/></g>
<g transform="translate(286,440) scale(3.7766666666667)"><rect width="6" height="6"/></g>
<g transform="translate(308,440) scale(3.7766666666667)"><rect width="6" height="6"/></g>
<g transform="translate(330,440) scale(3.7766666666667)"><rect width="6" height="6"/></g>
<g transform="translate(462,440) scale(3.7766666666667)"><rect width="6" height="6"/></g>
<g transform="translate(506,440) scale(3.7766666666667)"><rect width="6" height="6"/></g>
<g transform="translate(528,440) scale(3.7766666666667)"><rect width="6" height="6"/></g>
<g transform="translate(572,440) scale(3.7766666666667)"><rect width="6" height="6"/></g>
<g transform="translate(594,440) scale(3.7766666666667)"><rect width="6" height="6"/></g>
<g transform="translate(616,440) scale(3.7766666666667)"><rect width="6" height="6"/></g>
<g transform="translate(638,440) scale(3.7766666666667)"><rect width="6" height="6"/></g>
<g transform="translate(660,440) scale(3.7766666666667)"><rect width="6" height="6"/></g>
<g transform="translate(682,440) scale(3.7766666666667)"><rect width="6" height="6"/></g>
<g transform="translate(748,440) scale(3.7766666666667)"><rect width="6" height="6"/></g>
<g transform="translate(770,440) scale(3.7766666666667)"><rect width="6" height="6"/></g>
<g transform="translate(792,440) scale(3.7766666666667)"><rect width="6" height="6"/></g>
<g transform="translate(836,440) scale(3.7766666666667)"><rect width="6" height="6"/></g>
<g transform="translate(858,440) scale(3.7766666666667)"><rect width="6" height="6"/></g>
<g transform="translate(902,440) scale(3.7766666666667)"><rect width="6" height="6"/></g>
<g transform="translate(88,462) scale(3.7766666666667)"><rect width="6" height="6"/></g>
<g transform="translate(132,462) scale(3.7766666666667)"><rect width="6" height="6"/></g>
<g transform="translate(154,462) scale(3.7766666666667)"><rect width="6" height="6"/></g>
<g transform="translate(220,462) scale(3.7766666666667)"><rect width="6" height="6"/></g>
<g transform="translate(242,462) scale(3.7766666666667)"><rect width="6" height="6"/></g>
<g transform="translate(286,462) scale(3.7766666666667)"><rect width="6" height="6"/></g>
<g transform="translate(330,462) scale(3.7766666666667)"><rect width="6" height="6"/></g>
<g transform="translate(352,462) scale(3.7766666666667)"><rect width="6" height="6"/></g>
<g transform="translate(374,462) scale(3.7766666666667)"><rect width="6" height="6"/></g>
<g transform="translate(396,462) scale(3.7766666666667)"><rect width="6" height="6"/></g>
<g transform="translate(462,462) scale(3.7766666666667)"><rect width="6" height="6"/></g>
<g transform="translate(506,462) scale(3.7766666666667)"><rect width="6" height="6"/></g>
<g transform="translate(550,462) scale(3.7766666666667)"><rect width="6" height="6"/></g>
<g transform="translate(572,462) scale(3.7766666666667)"><rect width="6" height="6"/></g>
<g transform="translate(616,462) scale(3.7766666666667)"><rect width="6" height="6"/></g>
<g transform="translate(660,462) scale(3.7766666666667)"><rect width="6" height="6"/></g>
<g transform="translate(682,462) scale(3.7766666666667)"><rect width="6" height="6"/></g>
<g transform="translate(704,462) scale(3.7766666666667)"><rect width="6" height="6"/></g>
<g transform="translate(726,462) scale(3.7766666666667)"><rect width="6" height="6"/></g>
<g transform="translate(770,462) scale(3.7766666666667)"><rect width="6" height="6"/></g>
<g transform="translate(836,462) scale(3.7766666666667)"><rect width="6" height="6"/></g>
<g transform="translate(858,462) scale(3.7766666666667)"><rect width="6" height="6"/></g>
<g transform="translate(902,462) scale(3.7766666666667)"><rect width="6" height="6"/></g>
<g transform="translate(924,462) scale(3.7766666666667)"><rect width="6" height="6"/></g>
<g transform="translate(88,484) scale(3.7766666666667)"><rect width="6" height="6"/></g>
<g transform="translate(154,484) scale(3.7766666666667)"><rect width="6" height="6"/></g>
<g transform="translate(176,484) scale(3.7766666666667)"><rect width="6" height="6"/></g>
<g transform="translate(242,484) scale(3.7766666666667)"><rect width="6" height="6"/></g>
<g transform="translate(264,484) scale(3.7766666666667)"><rect width="6" height="6"/></g>
<g transform="translate(352,484) scale(3.7766666666667)"><rect width="6" height="6"/></g>
<g transform="translate(374,484) scale(3.7766666666667)"><rect width="6" height="6"/></g>
<g transform="translate(418,484) scale(3.7766666666667)"><rect width="6" height="6"/></g>
<g transform="translate(462,484) scale(3.7766666666667)"><rect width="6" height="6"/></g>
<g transform="translate(550,484) scale(3.7766666666667)"><rect width="6" height="6"/></g>
<g transform="translate(572,484) scale(3.7766666666667)"><rect width="6" height="6"/></g>
<g transform="translate(616,484) scale(3.7766666666667)"><rect width="6" height="6"/></g>
<g transform="translate(660,484) scale(3.7766666666667)"><rect width="6" height="6"/></g>
<g transform="translate(858,484) scale(3.7766666666667)"><rect width="6" height="6"/></g>
<g transform="translate(924,484) scale(3.7766666666667)"><rect width="6" height="6"/></g>
<g transform="translate(66,506) scale(3.7766666666667)"><rect width="6" height="6"/></g>
<g transform="translate(88,506) scale(3.7766666666667)"><rect width="6" height="6"/></g>
<g transform="translate(154,506) scale(3.7766666666667)"><rect width="6" height="6"/></g>
<g transform="translate(198,506) scale(3.7766666666667)"><rect width="6" height="6"/></g>
<g transform="translate(242,506) scale(3.7766666666667)"><rect width="6" height="6"/></g>
<g transform="translate(308,506) scale(3.7766666666667)"><rect width="6" height="6"/></g>
<g transform="translate(374,506) scale(3.7766666666667)"><rect width="6" height="6"/></g>
<g transform="translate(396,506) scale(3.7766666666667)"><rect width="6" height="6"/></g>
<g transform="translate(440,506) scale(3.7766666666667)"><rect width="6" height="6"/></g>
<g transform="translate(462,506) scale(3.7766666666667)"><rect width="6" height="6"/></g>
<g transform="translate(594,506) scale(3.7766666666667)"><rect width="6" height="6"/></g>
<g transform="translate(616,506) scale(3.7766666666667)"><rect width="6" height="6"/></g>
<g transform="translate(660,506) scale(3.7766666666667)"><rect width="6" height="6"/></g>
<g transform="translate(682,506) scale(3.7766666666667)"><rect width="6" height="6"/></g>
<g transform="translate(704,506) scale(3.7766666666667)"><rect width="6" height="6"/></g>
<g transform="translate(726,506) scale(3.7766666666667)"><rect width="6" height="6"/></g>
<g transform="translate(792,506) scale(3.7766666666667)"><rect width="6" height="6"/></g>
<g transform="translate(836,506) scale(3.7766666666667)"><rect width="6" height="6"/></g>
<g transform="translate(858,506) scale(3.7766666666667)"><rect width="6" height="6"/></g>
<g transform="translate(880,506) scale(3.7766666666667)"><rect width="6" height="6"/></g>
<g transform="translate(902,506) scale(3.7766666666667)"><rect width="6" height="6"/></g>
<g transform="translate(924,506) scale(3.7766666666667)"><rect width="6" height="6"/></g>
<g transform="translate(66,528) scale(3.7766666666667)"><rect width="6" height="6"/></g>
<g transform="translate(154,528) scale(3.7766666666667)"><rect width="6" height="6"/></g>
<g transform="translate(176,528) scale(3.7766666666667)"><rect width="6" height="6"/></g>
<g transform="translate(198,528) scale(3.7766666666667)"><rect width="6" height="6"/></g>
<g transform="translate(242,528) scale(3.7766666666667)"><rect width="6" height="6"/></g>
<g transform="translate(264,528) scale(3.7766666666667)"><rect width="6" height="6"/></g>
<g transform="translate(308,528) scale(3.7766666666667)"><rect width="6" height="6"/></g>
<g transform="translate(330,528) scale(3.7766666666667)"><rect width="6" height="6"/></g>
<g transform="translate(352,528) scale(3.7766666666667)"><rect width="6" height="6"/></g>
<g transform="translate(396,528) scale(3.7766666666667)"><rect width="6" height="6"/></g>
<g transform="translate(418,528) scale(3.7766666666667)"><rect width="6" height="6"/></g>
<g transform="translate(484,528) scale(3.7766666666667)"><rect width="6" height="6"/></g>
<g transform="translate(572,528) scale(3.7766666666667)"><rect width="6" height="6"/></g>
<g transform="translate(616,528) scale(3.7766666666667)"><rect width="6" height="6"/></g>
<g transform="translate(638,528) scale(3.7766666666667)"><rect width="6" height="6"/></g>
<g transform="translate(660,528) scale(3.7766666666667)"><rect width="6" height="6"/></g>
<g transform="translate(770,528) scale(3.7766666666667)"><rect width="6" height="6"/></g>
<g transform="translate(814,528) scale(3.7766666666667)"><rect width="6" height="6"/></g>
<g transform="translate(880,528) scale(3.7766666666667)"><rect width="6" height="6"/></g>
<g transform="translate(44,550) scale(3.7766666666667)"><rect width="6" height="6"/></g>
<g transform="translate(66,550) scale(3.7766666666667)"><rect width="6" height="6"/></g>
<g transform="translate(110,550) scale(3.7766666666667)"><rect width="6" height="6"/></g>
<g transform="translate(154,550) scale(3.7766666666667)"><rect width="6" height="6"/></g>
<g transform="translate(220,550) scale(3.7766666666667)"><rect width="6" height="6"/></g>
<g transform="translate(264,550) scale(3.7766666666667)"><rect width="6" height="6"/></g>
<g transform="translate(308,550) scale(3.7766666666667)"><rect width="6" height="6"/></g>
<g transform="translate(352,550) scale(3.7766666666667)"><rect width="6" height="6"/></g>
<g transform="translate(418,550) scale(3.7766666666667)"><rect width="6" height="6"/></g>
<g transform="translate(440,550) scale(3.7766666666667)"><rect width="6" height="6"/></g>
<g transform="translate(550,550) scale(3.7766666666667)"><rect width="6" height="6"/></g>
<g transform="translate(616,550) scale(3.7766666666667)"><rect width="6" height="6"/></g>
<g transform="translate(638,550) scale(3.7766666666667)"><rect width="6" height="6"/></g>
<g transform="translate(660,550) scale(3.7766666666667)"><rect width="6" height="6"/></g>
<g transform="translate(726,550) scale(3.7766666666667)"><rect width="6" height="6"/></g>
<g transform="translate(770,550) scale(3.7766666666667)"><rect width="6" height="6"/></g>
<g transform="translate(792,550) scale(3.7766666666667)"><rect width="6" height="6"/></g>
<g transform="translate(836,550) scale(3.7766666666667)"><rect width="6" height="6"/></g>
<g transform="translate(858,550) scale(3.7766666666667)"><rect width="6" height="6"/></g>
<g transform="translate(66,572) scale(3.7766666666667)"><rect width="6" height="6"/></g>
<g transform="translate(176,572) scale(3.7766666666667)"><rect width="6" height="6"/></g>
<g transform="translate(198,572) scale(3.7766666666667)"><rect width="6" height="6"/></g>
<g transform="translate(220,572) scale(3.7766666666667)"><rect width="6" height="6"/></g>
<g transform="translate(264,572) scale(3.7766666666667)"><rect width="6" height="6"/></g>
<g transform="translate(352,572) scale(3.7766666666667)"><rect width="6" height="6"/></g>
<g transform="translate(396,572) scale(3.7766666666667)"><rect width="6" height="6"/></g>
<g transform="translate(462,572) scale(3.7766666666667)"><rect width="6" height="6"/></g>
<g transform="translate(550,572) scale(3.7766666666667)"><rect width="6" height="6"/></g>
<g transform="translate(638,572) scale(3.7766666666667)"><rect width="6" height="6"/></g>
<g transform="translate(660,572) scale(3.7766666666667)"><rect width="6" height="6"/></g>
<g transform="translate(682,572) scale(3.7766666666667)"><rect width="6" height="6"/></g>
<g transform="translate(748,572) scale(3.7766666666667)"><rect width="6" height="6"/></g>
<g transform="translate(880,572) scale(3.7766666666667)"><rect width="6" height="6"/></g>
<g transform="translate(902,572) scale(3.7766666666667)"><rect width="6" height="6"/></g>
<g transform="translate(88,594) scale(3.7766666666667)"><rect width="6" height="6"/></g>
<g transform="translate(110,594) scale(3.7766666666667)"><rect width="6" height="6"/></g>
<g transform="translate(154,594) scale(3.7766666666667)"><rect width="6" height="6"/></g>
<g transform="translate(198,594) scale(3.7766666666667)"><rect width="6" height="6"/></g>
<g transform="translate(242,594) scale(3.7766666666667)"><rect width="6" height="6"/></g>
<g transform="translate(286,594) scale(3.7766666666667)"><rect width="6" height="6"/></g>
<g transform="translate(308,594) scale(3.7766666666667)"><rect width="6" height="6"/></g>
<g transform="translate(352,594) scale(3.7766666666667)"><rect width="6" height="6"/></g>
<g transform="translate(374,594) scale(3.7766666666667)"><rect width="6" height="6"/></g>
<g transform="translate(396,594) scale(3.7766666666667)"><rect width="6" height="6"/></g>
<g transform="translate(462,594) scale(3.7766666666667)"><rect width="6" height="6"/></g>
<g transform="translate(506,594) scale(3.7766666666667)"><rect width="6" height="6"/></g>
<g transform="translate(528,594) scale(3.7766666666667)"><rect width="6" height="6"/></g>
<g transform="translate(550,594) scale(3.7766666666667)"><rect width="6" height="6"/></g>
<g transform="translate(572,594) scale(3.7766666666667)"><rect width="6" height="6"/></g>
<g transform="translate(594,594) scale(3.7766666666667)"><rect width="6" height="6"/></g>
<g transform="translate(660,594) scale(3.7766666666667)"><rect width="6" height="6"/></g>
<g transform="translate(682,594) scale(3.7766666666667)"><rect width="6" height="6"/></g>
<g transform="translate(704,594) scale(3.7766666666667)"><rect width="6" height="6"/></g>
<g transform="translate(726,594) scale(3.7766666666667)"><rect width="6" height="6"/></g>
<g transform="translate(748,594) scale(3.7766666666667)"><rect width="6" height="6"/></g>
<g transform="translate(814,594) scale(3.7766666666667)"><rect width="6" height="6"/></g>
<g transform="translate(836,594) scale(3.7766666666667)"><rect width="6" height="6"/></g>
<g transform="translate(858,594) scale(3.7766666666667)"><rect width="6" height="6"/></g>
<g transform="translate(902,594) scale(3.7766666666667)"><rect width="6" height="6"/></g>
<g transform="translate(924,594) scale(3.7766666666667)"><rect width="6" height="6"/></g>
<g transform="translate(44,616) scale(3.7766666666667)"><rect width="6" height="6"/></g>
<g transform="translate(154,616) scale(3.7766666666667)"><rect width="6" height="6"/></g>
<g transform="translate(176,616) scale(3.7766666666667)"><rect width="6" height="6"/></g>
<g transform="translate(198,616) scale(3.7766666666667)"><rect width="6" height="6"/></g>
<g transform="translate(220,616) scale(3.7766666666667)"><rect width="6" height="6"/></g>
<g transform="translate(308,616) scale(3.7766666666667)"><rect width="6" height="6"/></g>
<g transform="translate(330,616) scale(3.7766666666667)"><rect width="6" height="6"/></g>
<g transform="translate(462,616) scale(3.7766666666667)"><rect width="6" height="6"/></g>
<g transform="translate(484,616) scale(3.7766666666667)"><rect width="6" height="6"/></g>
<g transform="translate(550,616) scale(3.7766666666667)"><rect width="6" height="6"/></g>
<g transform="translate(572,616) scale(3.7766666666667)"><rect width="6" height="6"/></g>
<g transform="translate(594,616) scale(3.7766666666667)"><rect width="6" height="6"/></g>
<g transform="translate(616,616) scale(3.7766666666667)"><rect width="6" height="6"/></g>
<g transform="translate(638,616) scale(3.7766666666667)"><rect width="6" height="6"/></g>
<g transform="translate(682,616) scale(3.7766666666667)"><rect width="6" height="6"/></g>
<g transform="translate(748,616) scale(3.7766666666667)"><rect width="6" height="6"/></g>
<g transform="translate(792,616) scale(3.7766666666667)"><rect width="6" height="6"/></g>
<g transform="translate(88,638) scale(3.7766666666667)"><rect width="6" height="6"/></g>
<g transform="translate(110,638) scale(3.7766666666667)"><rect width="6" height="6"/></g>
<g transform="translate(132,638) scale(3.7766666666667)"><rect width="6" height="6"/></g>
<g transform="translate(154,638) scale(3.7766666666667)"><rect width="6" height="6"/></g>
<g transform="translate(198,638) scale(3.7766666666667)"><rect width="6" height="6"/></g>
<g transform="translate(264,638) scale(3.7766666666667)"><rect width="6" height="6"/></g>
<g transform="translate(352,638) scale(3.7766666666667)"><rect width="6" height="6"/></g>
<g transform="translate(484,638) scale(3.7766666666667)"><rect width="6" height="6"/></g>
<g transform="translate(528,638) scale(3.7766666666667)"><rect width="6" height="6"/></g>
<g transform="translate(572,638) scale(3.7766666666667)"><rect width="6" height="6"/></g>
<g transform="translate(616,638) scale(3.7766666666667)"><rect width="6" height="6"/></g>
<g transform="translate(638,638) scale(3.7766666666667)"><rect width="6" height="6"/></g>
<g transform="translate(660,638) scale(3.7766666666667)"><rect width="6" height="6"/></g>
<g transform="translate(726,638) scale(3.7766666666667)"><rect width="6" height="6"/></g>
<g transform="translate(748,638) scale(3.7766666666667)"><rect width="6" height="6"/></g>
<g transform="translate(770,638) scale(3.7766666666667)"><rect width="6" height="6"/></g>
<g transform="translate(792,638) scale(3.7766666666667)"><rect width="6" height="6"/></g>
<g transform="translate(814,638) scale(3.7766666666667)"><rect width="6" height="6"/></g>
<g transform="translate(836,638) scale(3.7766666666667)"><rect width="6" height="6"/></g>
<g transform="translate(858,638) scale(3.7766666666667)"><rect width="6" height="6"/></g>
<g transform="translate(902,638) scale(3.7766666666667)"><rect width="6" height="6"/></g>
<g transform="translate(44,660) scale(3.7766666666667)"><rect width="6" height="6"/></g>
<g transform="translate(66,660) scale(3.7766666666667)"><rect width="6" height="6"/></g>
<g transform="translate(132,660) scale(3.7766666666667)"><rect width="6" height="6"/></g>
<g transform="translate(176,660) scale(3.7766666666667)"><rect width="6" height="6"/></g>
<g transform="translate(264,660) scale(3.7766666666667)"><rect width="6" height="6"/></g>
<g transform="translate(330,660) scale(3.7766666666667)"><rect width="6" height="6"/></g>
<g transform="translate(352,660) scale(3.7766666666667)"><rect width="6" height="6"/></g>
<g transform="translate(374,660) scale(3.7766666666667)"><rect width="6" height="6"/></g>
<g transform="translate(440,660) scale(3.7766666666667)"><rect width="6" height="6"/></g>
<g transform="translate(506,660) scale(3.7766666666667)"><rect width="6" height="6"/></g>
<g transform="translate(572,660) scale(3.7766666666667)"><rect width="6" height="6"/></g>
<g transform="translate(594,660) scale(3.7766666666667)"><rect width="6" height="6"/></g>
<g transform="translate(616,660) scale(3.7766666666667)"><rect width="6" height="6"/></g>
<g transform="translate(638,660) scale(3.7766666666667)"><rect width="6" height="6"/></g>
<g transform="translate(682,660) scale(3.7766666666667)"><rect width="6" height="6"/></g>
<g transform="translate(704,660) scale(3.7766666666667)"><rect width="6" height="6"/></g>
<g transform="translate(726,660) scale(3.7766666666667)"><rect width="6" height="6"/></g>
<g transform="translate(748,660) scale(3.7766666666667)"><rect width="6" height="6"/></g>
<g transform="translate(792,660) scale(3.7766666666667)"><rect width="6" height="6"/></g>
<g transform="translate(814,660) scale(3.7766666666667)"><rect width="6" height="6"/></g>
<g transform="translate(858,660) scale(3.7766666666667)"><rect width="6" height="6"/></g>
<g transform="translate(880,660) scale(3.7766666666667)"><rect width="6" height="6"/></g>
<g transform="translate(902,660) scale(3.7766666666667)"><rect width="6" height="6"/></g>
<g transform="translate(924,660) scale(3.7766666666667)"><rect width="6" height="6"/></g>
<g transform="translate(44,682) scale(3.7766666666667)"><rect width="6" height="6"/></g>
<g transform="translate(66,682) scale(3.7766666666667)"><rect width="6" height="6"/></g>
<g transform="translate(110,682) scale(3.7766666666667)"><rect width="6" height="6"/></g>
<g transform="translate(242,682) scale(3.7766666666667)"><rect width="6" height="6"/></g>
<g transform="translate(330,682) scale(3.7766666666667)"><rect width="6" height="6"/></g>
<g transform="translate(396,682) scale(3.7766666666667)"><rect width="6" height="6"/></g>
<g transform="translate(462,682) scale(3.7766666666667)"><rect width="6" height="6"/></g>
<g transform="translate(484,682) scale(3.7766666666667)"><rect width="6" height="6"/></g>
<g transform="translate(550,682) scale(3.7766666666667)"><rect width="6" height="6"/></g>
<g transform="translate(572,682) scale(3.7766666666667)"><rect width="6" height="6"/></g>
<g transform="translate(616,682) scale(3.7766666666667)"><rect width="6" height="6"/></g>
<g transform="translate(638,682) scale(3.7766666666667)"><rect width="6" height="6"/></g>
<g transform="translate(660,682) scale(3.7766666666667)"><rect width="6" height="6"/></g>
<g transform="translate(704,682) scale(3.7766666666667)"><rect width="6" height="6"/></g>
<g transform="translate(770,682) scale(3.7766666666667)"><rect width="6" height="6"/></g>
<g transform="translate(814,682) scale(3.7766666666667)"><rect width="6" height="6"/></g>
<g transform="translate(836,682) scale(3.7766666666667)"><rect width="6" height="6"/></g>
<g transform="translate(858,682) scale(3.7766666666667)"><rect width="6" height="6"/></g>
<g transform="translate(902,682) scale(3.7766666666667)"><rect width="6" height="6"/></g>
<g transform="translate(924,682) scale(3.7766666666667)"><rect width="6" height="6"/></g>
<g transform="translate(44,704) scale(3.7766666666667)"><rect width="6" height="6"/></g>
<g transform="translate(110,704) scale(3.7766666666667)"><rect width="6" height="6"/></g>
<g transform="translate(154,704) scale(3.7766666666667)"><rect width="6" height="6"/></g>
<g transform="translate(176,704) scale(3.7766666666667)"><rect width="6" height="6"/></g>
<g transform="translate(264,704) scale(3.7766666666667)"><rect width="6" height="6"/></g>
<g transform="translate(330,704) scale(3.7766666666667)"><rect width="6" height="6"/></g>
<g transform="translate(352,704) scale(3.7766666666667)"><rect width="6" height="6"/></g>
<g transform="translate(374,704) scale(3.7766666666667)"><rect width="6" height="6"/></g>
<g transform="translate(396,704) scale(3.7766666666667)"><rect width="6" height="6"/></g>
<g transform="translate(418,704) scale(3.7766666666667)"><rect width="6" height="6"/></g>
<g transform="translate(462,704) scale(3.7766666666667)"><rect width="6" height="6"/></g>
<g transform="translate(484,704) scale(3.7766666666667)"><rect width="6" height="6"/></g>
<g transform="translate(550,704) scale(3.7766666666667)"><rect width="6" height="6"/></g>
<g transform="translate(572,704) scale(3.7766666666667)"><rect width="6" height="6"/></g>
<g transform="translate(682,704) scale(3.7766666666667)"><rect width="6" height="6"/></g>
<g transform="translate(704,704) scale(3.7766666666667)"><rect width="6" height="6"/></g>
<g transform="translate(748,704) scale(3.7766666666667)"><rect width="6" height="6"/></g>
<g transform="translate(792,704) scale(3.7766666666667)"><rect width="6" height="6"/></g>
<g transform="translate(814,704) scale(3.7766666666667)"><rect width="6" height="6"/></g>
<g transform="translate(836,704) scale(3.7766666666667)"><rect width="6" height="6"/></g>
<g transform="translate(858,704) scale(3.7766666666667)"><rect width="6" height="6"/></g>
<g transform="translate(880,704) scale(3.7766666666667)"><rect width="6" height="6"/></g>
<g transform="translate(44,726) scale(3.7766666666667)"><rect width="6" height="6"/></g>
<g transform="translate(110,726) scale(3.7766666666667)"><rect width="6" height="6"/></g>
<g transform="translate(132,726) scale(3.7766666666667)"><rect width="6" height="6"/></g>
<g transform="translate(220,726) scale(3.7766666666667)"><rect width="6" height="6"/></g>
<g transform="translate(242,726) scale(3.7766666666667)"><rect width="6" height="6"/></g>
<g transform="translate(396,726) scale(3.7766666666667)"><rect width="6" height="6"/></g>
<g transform="translate(418,726) scale(3.7766666666667)"><rect width="6" height="6"/></g>
<g transform="translate(440,726) scale(3.7766666666667)"><rect width="6" height="6"/></g>
<g transform="translate(462,726) scale(3.7766666666667)"><rect width="6" height="6"/></g>
<g transform="translate(506,726) scale(3.7766666666667)"><rect width="6" height="6"/></g>
<g transform="translate(528,726) scale(3.7766666666667)"><rect width="6" height="6"/></g>
<g transform="translate(550,726) scale(3.7766666666667)"><rect width="6" height="6"/></g>
<g transform="translate(616,726) scale(3.7766666666667)"><rect width="6" height="6"/></g>
<g transform="translate(660,726) scale(3.7766666666667)"><rect width="6" height="6"/></g>
<g transform="translate(704,726) scale(3.7766666666667)"><rect width="6" height="6"/></g>
<g transform="translate(792,726) scale(3.7766666666667)"><rect width="6" height="6"/></g>
<g transform="translate(858,726) scale(3.7766666666667)"><rect width="6" height="6"/></g>
<g transform="translate(44,748) scale(3.7766666666667)"><rect width="6" height="6"/></g>
<g transform="translate(88,748) scale(3.7766666666667)"><rect width="6" height="6"/></g>
<g transform="translate(154,748) scale(3.7766666666667)"><rect width="6" height="6"/></g>
<g transform="translate(176,748) scale(3.7766666666667)"><rect width="6" height="6"/></g>
<g transform="translate(220,748) scale(3.7766666666667)"><rect width="6" height="6"/></g>
<g transform="translate(286,748) scale(3.7766666666667)"><rect width="6" height="6"/></g>
<g transform="translate(330,748) scale(3.7766666666667)"><rect width="6" height="6"/></g>
<g transform="translate(396,748) scale(3.7766666666667)"><rect width="6" height="6"/></g>
<g transform="translate(418,748) scale(3.7766666666667)"><rect width="6" height="6"/></g>
<g transform="translate(440,748) scale(3.7766666666667)"><rect width="6" height="6"/></g>
<g transform="translate(484,748) scale(3.7766666666667)"><rect width="6" height="6"/></g>
<g transform="translate(660,748) scale(3.7766666666667)"><rect width="6" height="6"/></g>
<g transform="translate(682,748) scale(3.7766666666667)"><rect width="6" height="6"/></g>
<g transform="translate(748,748) scale(3.7766666666667)"><rect width="6" height="6"/></g>
<g transform="translate(770,748) scale(3.7766666666667)"><rect width="6" height="6"/></g>
<g transform="translate(792,748) scale(3.7766666666667)"><rect width="6" height="6"/></g>
<g transform="translate(814,748) scale(3.7766666666667)"><rect width="6" height="6"/></g>
<g transform="translate(836,748) scale(3.7766666666667)"><rect width="6" height="6"/></g>
<g transform="translate(880,748) scale(3.7766666666667)"><rect width="6" height="6"/></g>
<g transform="translate(220,770) scale(3.7766666666667)"><rect width="6" height="6"/></g>
<g transform="translate(242,770) scale(3.7766666666667)"><rect width="6" height="6"/></g>
<g transform="translate(308,770) scale(3.7766666666667)"><rect width="6" height="6"/></g>
<g transform="translate(330,770) scale(3.7766666666667)"><rect width="6" height="6"/></g>
<g transform="translate(352,770) scale(3.7766666666667)"><rect width="6" height="6"/></g>
<g transform="translate(396,770) scale(3.7766666666667)"><rect width="6" height="6"/></g>
<g transform="translate(462,770) scale(3.7766666666667)"><rect width="6" height="6"/></g>
<g transform="translate(484,770) scale(3.7766666666667)"><rect width="6" height="6"/></g>
<g transform="translate(528,770) scale(3.7766666666667)"><rect width="6" height="6"/></g>
<g transform="translate(550,770) scale(3.7766666666667)"><rect width="6" height="6"/></g>
<g transform="translate(572,770) scale(3.7766666666667)"><rect width="6" height="6"/></g>
<g transform="translate(638,770) scale(3.7766666666667)"><rect width="6" height="6"/></g>
<g transform="translate(660,770) scale(3.7766666666667)"><rect width="6" height="6"/></g>
<g transform="translate(726,770) scale(3.7766666666667)"><rect width="6" height="6"/></g>
<g transform="translate(748,770) scale(3.7766666666667)"><rect width="6" height="6"/></g>
<g transform="translate(836,770) scale(3.7766666666667)"><rect width="6" height="6"/></g>
<g transform="translate(858,770) scale(3.7766666666667)"><rect width="6" height="6"/></g>
<g transform="translate(880,770) scale(3.7766666666667)"><rect width="6" height="6"/></g>
<g transform="translate(902,770) scale(3.7766666666667)"><rect width="6" height="6"/></g>
<g transform="translate(924,770) scale(3.7766666666667)"><rect width="6" height="6"/></g>
<g transform="translate(242,792) scale(3.7766666666667)"><rect width="6" height="6"/></g>
<g transform="translate(286,792) scale(3.7766666666667)"><rect width="6" height="6"/></g>
<g transform="translate(308,792) scale(3.7766666666667)"><rect width="6" height="6"/></g>
<g transform="translate(330,792) scale(3.7766666666667)"><rect width="6" height="6"/></g>
<g transform="translate(506,792) scale(3.7766666666667)"><rect width="6" height="6"/></g>
<g transform="translate(528,792) scale(3.7766666666667)"><rect width="6" height="6"/></g>
<g transform="translate(550,792) scale(3.7766666666667)"><rect width="6" height="6"/></g>
<g transform="translate(572,792) scale(3.7766666666667)"><rect width="6" height="6"/></g>
<g transform="translate(616,792) scale(3.7766666666667)"><rect width="6" height="6"/></g>
<g transform="translate(638,792) scale(3.7766666666667)"><rect width="6" height="6"/></g>
<g transform="translate(704,792) scale(3.7766666666667)"><rect width="6" height="6"/></g>
<g transform="translate(726,792) scale(3.7766666666667)"><rect width="6" height="6"/></g>
<g transform="translate(748,792) scale(3.7766666666667)"><rect width="6" height="6"/></g>
<g transform="translate(792,792) scale(3.7766666666667)"><rect width="6" height="6"/></g>
<g transform="translate(836,792) scale(3.7766666666667)"><rect width="6" height="6"/></g>
<g transform="translate(858,792) scale(3.7766666666667)"><rect width="6" height="6"/></g>
<g transform="translate(880,792) scale(3.7766666666667)"><rect width="6" height="6"/></g>
<g transform="translate(242,814) scale(3.7766666666667)"><rect width="6" height="6"/></g>
<g transform="translate(264,814) scale(3.7766666666667)"><rect width="6" height="6"/></g>
<g transform="translate(308,814) scale(3.7766666666667)"><rect width="6" height="6"/></g>
<g transform="translate(330,814) scale(3.7766666666667)"><rect width="6" height="6"/></g>
<g transform="translate(352,814) scale(3.7766666666667)"><rect width="6" height="6"/></g>
<g transform="translate(374,814) scale(3.7766666666667)"><rect width="6" height="6"/></g>
<g transform="translate(396,814) scale(3.7766666666667)"><rect width="6" height="6"/></g>
<g transform="translate(418,814) scale(3.7766666666667)"><rect width="6" height="6"/></g>
<g transform="translate(440,814) scale(3.7766666666667)"><rect width="6" height="6"/></g>
<g transform="translate(484,814) scale(3.7766666666667)"><rect width="6" height="6"/></g>
<g transform="translate(506,814) scale(3.7766666666667)"><rect width="6" height="6"/></g>
<g transform="translate(550,814) scale(3.7766666666667)"><rect width="6" height="6"/></g>
<g transform="translate(638,814) scale(3.7766666666667)"><rect width="6" height="6"/></g>
<g transform="translate(660,814) scale(3.7766666666667)"><rect width="6" height="6"/></g>
<g transform="translate(726,814) scale(3.7766666666667)"><rect width="6" height="6"/></g>
<g transform="translate(748,814) scale(3.7766666666667)"><rect width="6" height="6"/></g>
<g transform="translate(836,814) scale(3.7766666666667)"><rect width="6" height="6"/></g>
<g transform="translate(858,814) scale(3.7766666666667)"><rect width="6" height="6"/></g>
<g transform="translate(902,814) scale(3.7766666666667)"><rect width="6" height="6"/></g>
<g transform="translate(924,814) scale(3.7766666666667)"><rect width="6" height="6"/></g>
<g transform="translate(220,836) scale(3.7766666666667)"><rect width="6" height="6"/></g>
<g transform="translate(242,836) scale(3.7766666666667)"><rect width="6" height="6"/></g>
<g transform="translate(286,836) scale(3.7766666666667)"><rect width="6" height="6"/></g>
<g transform="translate(308,836) scale(3.7766666666667)"><rect width="6" height="6"/></g>
<g transform="translate(330,836) scale(3.7766666666667)"><rect width="6" height="6"/></g>
<g transform="translate(374,836) scale(3.7766666666667)"><rect width="6" height="6"/></g>
<g transform="translate(396,836) scale(3.7766666666667)"><rect width="6" height="6"/></g>
<g transform="translate(462,836) scale(3.7766666666667)"><rect width="6" height="6"/></g>
<g transform="translate(506,836) scale(3.7766666666667)"><rect width="6" height="6"/></g>
<g transform="translate(528,836) scale(3.7766666666667)"><rect width="6" height="6"/></g>
<g transform="translate(572,836) scale(3.7766666666667)"><rect width="6" height="6"/></g>
<g transform="translate(616,836) scale(3.7766666666667)"><rect width="6" height="6"/></g>
<g transform="translate(638,836) scale(3.7766666666667)"><rect width="6" height="6"/></g>
<g transform="translate(704,836) scale(3.7766666666667)"><rect width="6" height="6"/></g>
<g transform="translate(748,836) scale(3.7766666666667)"><rect width="6" height="6"/></g>
<g transform="translate(770,836) scale(3.7766666666667)"><rect width="6" height="6"/></g>
<g transform="translate(792,836) scale(3.7766666666667)"><rect width="6" height="6"/></g>
<g transform="translate(814,836) scale(3.7766666666667)"><rect width="6" height="6"/></g>
<g transform="translate(836,836) scale(3.7766666666667)"><rect width="6" height="6"/></g>
<g transform="translate(880,836) scale(3.7766666666667)"><rect width="6" height="6"/></g>
<g transform="translate(924,836) scale(3.7766666666667)"><rect width="6" height="6"/></g>
<g transform="translate(220,858) scale(3.7766666666667)"><rect width="6" height="6"/></g>
<g transform="translate(286,858) scale(3.7766666666667)"><rect width="6" height="6"/></g>
<g transform="translate(352,858) scale(3.7766666666667)"><rect width="6" height="6"/></g>
<g transform="translate(396,858) scale(3.7766666666667)"><rect width="6" height="6"/></g>
<g transform="translate(418,858) scale(3.7766666666667)"><rect width="6" height="6"/></g>
<g transform="translate(462,858) scale(3.7766666666667)"><rect width="6" height="6"/></g>
<g transform="translate(572,858) scale(3.7766666666667)"><rect width="6" height="6"/></g>
<g transform="translate(594,858) scale(3.7766666666667)"><rect width="6" height="6"/></g>
<g transform="translate(660,858) scale(3.7766666666667)"><rect width="6" height="6"/></g>
<g transform="translate(726,858) scale(3.7766666666667)"><rect width="6" height="6"/></g>
<g transform="translate(748,858) scale(3.7766666666667)"><rect width="6" height="6"/></g>
<g transform="translate(770,858) scale(3.7766666666667)"><rect width="6" height="6"/></g>
<g transform="translate(814,858) scale(3.7766666666667)"><rect width="6" height="6"/></g>
<g transform="translate(858,858) scale(3.7766666666667)"><rect width="6" height="6"/></g>
<g transform="translate(924,858) scale(3.7766666666667)"><rect width="6" height="6"/></g>
<g transform="translate(220,880) scale(3.7766666666667)"><rect width="6" height="6"/></g>
<g transform="translate(286,880) scale(3.7766666666667)"><rect width="6" height="6"/></g>
<g transform="translate(308,880) scale(3.7766666666667)"><rect width="6" height="6"/></g>
<g transform="translate(352,880) scale(3.7766666666667)"><rect width="6" height="6"/></g>
<g transform="translate(374,880) scale(3.7766666666667)"><rect width="6" height="6"/></g>
<g transform="translate(396,880) scale(3.7766666666667)"><rect width="6" height="6"/></g>
<g transform="translate(484,880) scale(3.7766666666667)"><rect width="6" height="6"/></g>
<g transform="translate(506,880) scale(3.7766666666667)"><rect width="6" height="6"/></g>
<g transform="translate(528,880) scale(3.7766666666667)"><rect width="6" height="6"/></g>
<g transform="translate(572,880) scale(3.7766666666667)"><rect width="6" height="6"/></g>
<g transform="translate(594,880) scale(3.7766666666667)"><rect width="6" height="6"/></g>
<g transform="translate(616,880) scale(3.7766666666667)"><rect width="6" height="6"/></g>
<g transform="translate(638,880) scale(3.7766666666667)"><rect width="6" height="6"/></g>
<g transform="translate(660,880) scale(3.7766666666667)"><rect width="6" height="6"/></g>
<g transform="translate(682,880) scale(3.7766666666667)"><rect width="6" height="6"/></g>
<g transform="translate(704,880) scale(3.7766666666667)"><rect width="6" height="6"/></g>
<g transform="translate(726,880) scale(3.7766666666667)"><rect width="6" height="6"/></g>
<g transform="translate(748,880) scale(3.7766666666667)"><rect width="6" height="6"/></g>
<g transform="translate(770,880) scale(3.7766666666667)"><rect width="6" height="6"/></g>
<g transform="translate(792,880) scale(3.7766666666667)"><rect width="6" height="6"/></g>
<g transform="translate(814,880) scale(3.7766666666667)"><rect width="6" height="6"/></g>
<g transform="translate(836,880) scale(3.7766666666667)"><rect width="6" height="6"/></g>
<g transform="translate(858,880) scale(3.7766666666667)"><rect width="6" height="6"/></g>
<g transform="translate(902,880) scale(3.7766666666667)"><rect width="6" height="6"/></g>
<g transform="translate(308,902) scale(3.7766666666667)"><rect width="6" height="6"/></g>
<g transform="translate(352,902) scale(3.7766666666667)"><rect width="6" height="6"/></g>
<g transform="translate(374,902) scale(3.7766666666667)"><rect width="6" height="6"/></g>
<g transform="translate(462,902) scale(3.7766666666667)"><rect width="6" height="6"/></g>
<g transform="translate(484,902) scale(3.7766666666667)"><rect width="6" height="6"/></g>
<g transform="translate(550,902) scale(3.7766666666667)"><rect width="6" height="6"/></g>
<g transform="translate(572,902) scale(3.7766666666667)"><rect width="6" height="6"/></g>
<g transform="translate(616,902) scale(3.7766666666667)"><rect width="6" height="6"/></g>
<g transform="translate(660,902) scale(3.7766666666667)"><rect width="6" height="6"/></g>
<g transform="translate(748,902) scale(3.7766666666667)"><rect width="6" height="6"/></g>
<g transform="translate(836,902) scale(3.7766666666667)"><rect width="6" height="6"/></g>
<g transform="translate(858,902) scale(3.7766666666667)"><rect width="6" height="6"/></g>
<g transform="translate(902,902) scale(3.7766666666667)"><rect width="6" height="6"/></g>
<g transform="translate(308,924) scale(3.7766666666667)"><rect width="6" height="6"/></g>
<g transform="translate(396,924) scale(3.7766666666667)"><rect width="6" height="6"/></g>
<g transform="translate(440,924) scale(3.7766666666667)"><rect width="6" height="6"/></g>
<g transform="translate(506,924) scale(3.7766666666667)"><rect width="6" height="6"/></g>
<g transform="translate(528,924) scale(3.7766666666667)"><rect width="6" height="6"/></g>
<g transform="translate(550,924) scale(3.7766666666667)"><rect width="6" height="6"/></g>
<g transform="translate(616,924) scale(3.7766666666667)"><rect width="6" height="6"/></g>
<g transform="translate(682,924) scale(3.7766666666667)"><rect width="6" height="6"/></g>
<g transform="translate(726,924) scale(3.7766666666667)"><rect width="6" height="6"/></g>
<g transform="translate(814,924) scale(3.7766666666667)"><rect width="6" height="6"/></g>
<g transform="translate(836,924) scale(3.7766666666667)"><rect width="6" height="6"/></g>
<g transform="translate(858,924) scale(3.7766666666667)"><rect width="6" height="6"/></g>
<g transform="translate(880,924) scale(3.7766666666667)"><rect width="6" height="6"/></g>
</g><g><g transform="translate(44,44)"  fill="#000000"><g transform="scale(11)"><path d="M0,0v14h14V0H0z M12,12H2V2h10V12z"/></g></g>
<g transform="translate(792,44)"  fill="#000000"><g transform="scale(11)"><path d="M0,0v14h14V0H0z M12,12H2V2h10V12z"/></g></g>
<g transform="translate(44,792)"  fill="#000000"><g transform="scale(11)"><path d="M0,0v14h14V0H0z M12,12H2V2h10V12z"/></g></g>
<g transform="translate(88,88)"  fill="#000000"><g transform="scale(11)"><rect width="6" height="6"/></g></g>
<g transform="translate(836,88)"  fill="#000000"><g transform="scale(11)"><rect width="6" height="6"/></g></g>
<g transform="translate(88,836)"  fill="#000000"><g transform="scale(11)"><rect width="6" height="6"/></g></g></g>
</svg>